<svg width="68" height="95" viewBox="0 0 68 95" fill="none" xmlns="http://www.w3.org/2000/svg">
<g clip-path="url(#clip0_1_4290)">
<path d="M64.9697 0H2.32971C1.04143 0 0 1.02822 0 2.30017V92.7074C0 93.9794 1.04143 95.0076 2.32971 95.0076H64.9697C66.258 95.0076 67.2994 93.9794 67.2994 92.7074V2.30017C67.2917 1.02822 66.2502 0 64.9697 0Z" fill="url(#paint0_linear_1_4290)"/>
<path d="M60.858 4.09766H6.43377C5.18406 4.09766 4.16577 5.10303 4.16577 6.34451V81.0923C4.16577 82.3338 5.18406 83.3316 6.43377 83.3316H60.858C62.1155 83.3316 63.126 82.3262 63.126 81.0923V6.34451C63.126 5.10303 62.1155 4.09766 60.858 4.09766Z" fill="white"/>
<path d="M44.7737 39.6361H22.5257C21.5074 39.6361 20.682 38.8211 20.682 37.8158V15.8423C20.682 14.8369 21.5074 14.022 22.5257 14.022H44.7737C45.792 14.022 46.6174 14.8369 46.6174 15.8423V37.8081C46.6174 38.8135 45.792 39.6361 44.7737 39.6361Z" fill="url(#paint1_linear_1_4290)"/>
<path d="M33.6498 92.5476C35.5414 92.5476 37.0749 91.0335 37.0749 89.1659C37.0749 87.2982 35.5414 85.7842 33.6498 85.7842C31.7581 85.7842 30.2246 87.2982 30.2246 89.1659C30.2246 91.0335 31.7581 92.5476 33.6498 92.5476Z" fill="white"/>
<path d="M53.0357 51.0149H14.256C13.2763 51.0149 12.474 50.2228 12.474 49.2555C12.474 48.2882 13.2763 47.4961 14.256 47.4961H53.028C54.0077 47.4961 54.81 48.2882 54.81 49.2555C54.81 50.2228 54.0154 51.0149 53.0357 51.0149Z" fill="url(#paint2_linear_1_4290)"/>
<path opacity="0.6" d="M46.4708 60.7641H13.608C12.9831 60.7641 12.4817 60.2614 12.4817 59.6521V59.5302C12.4817 58.9133 12.9908 58.4182 13.608 58.4182H46.4708C47.0957 58.4182 47.5971 58.9209 47.5971 59.5302V59.6521C47.6048 60.2614 47.0957 60.7641 46.4708 60.7641Z" fill="url(#paint3_linear_1_4290)"/>
<path opacity="0.3" d="M40.2146 66.9563H13.5C12.9369 66.9563 12.474 66.4993 12.474 65.9433V65.6082C12.474 65.0522 12.9369 64.5952 13.5 64.5952H40.2068C40.77 64.5952 41.2328 65.0522 41.2328 65.6082V65.9433C41.2328 66.4993 40.77 66.9563 40.2146 66.9563Z" fill="url(#paint4_linear_1_4290)"/>
<path opacity="0.6" d="M43.578 72.6913H13.5617C12.9677 72.6913 12.4817 72.2115 12.4817 71.625V71.4118C12.4817 70.8253 12.9677 70.3455 13.5617 70.3455H43.578C44.172 70.3455 44.658 70.8253 44.658 71.4118V71.625C44.658 72.2039 44.172 72.6913 43.578 72.6913Z" fill="url(#paint5_linear_1_4290)"/>
<path d="M33.7166 26.1208C35.9442 26.1208 37.7499 24.3142 37.7499 22.0854C37.7499 19.8567 35.9442 18.05 33.7166 18.05C31.489 18.05 29.6833 19.8567 29.6833 22.0854C29.6833 24.3142 31.4806 26.1208 33.7166 26.1208ZM33.7166 28.1385C31.0249 28.1385 25.65 29.4893 25.65 32.1739V33.187C25.65 33.7442 26.1057 34.2 26.6626 34.2H40.7875C41.3444 34.2 41.8 33.7442 41.8 33.187V32.1739C41.7831 29.4977 36.4083 28.1385 33.7166 28.1385Z" fill="white"/>
</g>
<defs>
<linearGradient id="paint0_linear_1_4290" x1="4.07698" y1="45.0301" x2="67.3445" y2="50.4539" gradientUnits="userSpaceOnUse">
<stop stop-color="#6CBCFC"/>
<stop offset="1" stop-color="#458DFC"/>
</linearGradient>
<linearGradient id="paint1_linear_1_4290" x1="18.6708" y1="19.2924" x2="48.4655" y2="34.6686" gradientUnits="userSpaceOnUse">
<stop stop-color="#B0F4FF"/>
<stop offset="0.0856277" stop-color="#A3F0FE"/>
<stop offset="0.2972" stop-color="#8AE7FD"/>
<stop offset="0.5161" stop-color="#77E1FD"/>
<stop offset="0.7451" stop-color="#6DDDFC"/>
<stop offset="1" stop-color="#69DCFC"/>
</linearGradient>
<linearGradient id="paint2_linear_1_4290" x1="54.8137" y1="49.2569" x2="12.4813" y2="49.2569" gradientUnits="userSpaceOnUse">
<stop stop-color="#6CBCFC"/>
<stop offset="1" stop-color="#458DFC"/>
</linearGradient>
<linearGradient id="paint3_linear_1_4290" x1="47.6026" y1="59.5878" x2="12.4812" y2="59.5878" gradientUnits="userSpaceOnUse">
<stop stop-color="#6CBCFC"/>
<stop offset="1" stop-color="#458DFC"/>
</linearGradient>
<linearGradient id="paint4_linear_1_4290" x1="41.2336" y1="65.78" x2="12.4813" y2="65.78" gradientUnits="userSpaceOnUse">
<stop stop-color="#6CBCFC"/>
<stop offset="1" stop-color="#458DFC"/>
</linearGradient>
<linearGradient id="paint5_linear_1_4290" x1="44.6573" y1="71.5123" x2="12.4813" y2="71.5123" gradientUnits="userSpaceOnUse">
<stop stop-color="#6CBCFC"/>
<stop offset="1" stop-color="#458DFC"/>
</linearGradient>
<clipPath id="clip0_1_4290">
<rect width="67.2917" height="95" fill="white"/>
</clipPath>
</defs>
</svg>
