<svg width="68" height="95" viewBox="0 0 68 95" fill="none" xmlns="http://www.w3.org/2000/svg">
<g clip-path="url(#clip0_1_4326)">
<path d="M67.7105 90.4482C67.7105 92.9272 65.7041 94.942 63.225 94.942L5.22014 95.0083C3.24684 95.0083 1.57203 93.7398 0.966778 91.9737C0.809246 91.5177 0.726334 91.0368 0.726334 90.5311L0.635132 6.88167C0.635132 4.40261 2.64159 2.38786 5.12064 2.38786L58.383 2.32982L63.1255 2.32153C65.6046 2.32153 67.6193 4.32799 67.6193 6.80704L67.7105 90.4482Z" fill="url(#paint0_linear_1_4326)"/>
<path d="M61.6995 89.9672L6.73743 90.0252C5.40255 90.0252 4.3247 88.9474 4.3247 87.6125L4.24179 9.76691C4.24179 8.43203 5.31964 7.35418 6.65452 7.35418L61.6083 7.29614C62.9431 7.29614 64.021 8.37399 64.021 9.70887L64.1039 87.5545C64.1122 88.8811 63.0343 89.9672 61.6995 89.9672Z" fill="white"/>
<path d="M53.9804 13.7135L13.8927 13.7632C12.5661 13.7632 11.4799 12.6854 11.4799 11.3588L11.4716 4.6761C11.4716 3.34952 12.5495 2.26338 13.8761 2.26338L53.9721 2.22192C55.2987 2.22192 56.3848 3.29977 56.3848 4.62636L56.3931 11.309C56.3848 12.6356 55.307 13.7135 53.9804 13.7135ZM13.8761 3.49047C13.2294 3.49047 12.6987 4.0211 12.6987 4.66781L12.707 11.3505C12.707 11.9972 13.2377 12.5278 13.8844 12.5278L53.9804 12.4864C54.6271 12.4864 55.1577 11.9557 55.1577 11.309L55.1494 4.62636C55.1494 3.97965 54.6188 3.44901 53.9721 3.44901L13.8761 3.49047Z" fill="url(#paint1_linear_1_4326)"/>
<path d="M52.8445 5.11564L15.41 5.1571C14.9954 5.1571 14.6638 4.82545 14.6638 4.41089V0.787659C14.6638 0.373102 14.9954 0.0414557 15.41 0.0414557L52.8362 0C53.2508 0 53.5824 0.331646 53.5824 0.746203V4.36944C53.5907 4.78399 53.2591 5.11564 52.8445 5.11564Z" fill="url(#paint2_linear_1_4326)"/>
<path d="M15.4431 5.15714L52.8113 5.11568C53.2425 5.11568 53.5907 4.76746 53.5907 4.33632V2.56201L14.6555 2.60347V4.37777C14.6555 4.80891 15.012 5.15714 15.4431 5.15714Z" fill="#58D6F4"/>
<path d="M28.5763 81.2119L25.3428 61.6448L22.7228 70.1598L15.2276 70.1681C14.7715 70.1681 14.4067 69.8033 14.4067 69.3473C14.4067 68.8912 14.7715 68.5264 15.2276 68.5264L21.5205 68.5181L25.8402 54.4978L29.0738 74.1147L33.2691 60.6415L35.4994 67.0257L40.5239 54.846L45.4074 74.1644L47.248 68.0207L52.6372 68.0124C53.0932 68.0124 53.4581 68.3772 53.4581 68.8332C53.4581 69.2892 53.0932 69.654 52.6372 69.654L48.4668 69.6623L45.2747 80.3164L40.1508 60.0529L35.3668 71.6356L33.352 65.8733L28.5763 81.2119Z" fill="#58D6F4"/>
<path d="M23.0212 43.4872L12.4831 43.4955C10.7835 43.4955 9.39054 42.1109 9.39054 40.4112L9.37396 25.6778C9.37396 23.9781 10.7586 22.5852 12.4583 22.5852L22.9963 22.5769C24.696 22.5769 26.0889 23.9615 26.0889 25.6612L26.1055 40.3946C26.1055 42.0943 24.7209 43.4789 23.0212 43.4872ZM12.45 23.4806C11.2395 23.4806 10.2611 24.4673 10.2611 25.6778L10.2777 40.4112C10.2777 41.6217 11.2643 42.6 12.4749 42.6L23.0129 42.5917C24.2234 42.5917 25.2018 41.6051 25.2018 40.3946L25.1852 25.6612C25.1852 24.4507 24.1985 23.4724 22.988 23.4724L12.45 23.4806Z" fill="url(#paint3_linear_1_4326)"/>
<path d="M17.7398 40.6598C22.7228 40.6515 24.2732 37.7745 24.2732 37.7745C24.0493 37.4926 23.7674 37.2439 23.386 36.9951C22.076 36.1411 21.0231 35.7763 20.5836 35.4115C20.1359 35.055 19.8872 34.5327 19.8872 34.5327L19.6136 34.6985C19.6136 34.6985 19.4477 34.1264 19.539 33.2558C19.539 33.2558 19.9286 33.1563 20.2188 31.838C20.6831 31.9292 21.2303 30.7519 20.9733 30.3207C20.8075 30.0388 20.6085 30.0637 20.4676 30.1301C20.6085 29.5414 21.2469 26.283 17.7315 26.283C14.216 26.283 14.8544 29.5414 15.0037 30.1301C14.8627 30.0637 14.6638 30.0388 14.4979 30.3207C14.2409 30.7519 14.7964 31.9292 15.2607 31.838C15.5509 33.1563 15.9489 33.2475 15.9489 33.2475C16.0484 34.1098 15.8743 34.6902 15.8743 34.6902L15.6007 34.5244C15.6007 34.5244 15.3519 35.0384 14.9042 35.4032C14.4565 35.768 13.4118 36.1411 12.1018 36.9951C11.7204 37.2439 11.4302 37.4926 11.2146 37.7745C11.2063 37.7911 12.7651 40.6681 17.7398 40.6598Z" fill="url(#paint4_linear_1_4326)"/>
<path d="M50.5561 27.2778L30.2677 27.3027C29.8863 27.3027 29.5795 26.9959 29.5795 26.6145V26.4984C29.5795 26.117 29.8863 25.8103 30.2677 25.8103L50.5561 25.7854C50.9375 25.7854 51.2443 26.0922 51.2443 26.4736V26.5896C51.2443 26.971 50.9292 27.2778 50.5561 27.2778Z" fill="url(#paint5_linear_1_4326)"/>
<path d="M43.0941 31.1416L30.2677 31.1582C29.8863 31.1582 29.5795 30.8514 29.5795 30.47V30.3539C29.5795 29.9725 29.8863 29.6658 30.2677 29.6658L43.0941 29.6492C43.4755 29.6492 43.7823 29.9559 43.7823 30.3373V30.4534C43.7823 30.8348 43.4755 31.1416 43.0941 31.1416Z" fill="url(#paint6_linear_1_4326)"/>
<path opacity="0.6" d="M57.5539 35.7348L30.276 35.768C29.8946 35.768 29.5878 35.4612 29.5878 35.0798V34.9638C29.5878 34.5824 29.8946 34.2756 30.276 34.2756L57.5539 34.2424C57.9353 34.2424 58.242 34.5492 58.242 34.9306V35.0467C58.2338 35.4281 57.927 35.7348 57.5539 35.7348Z" fill="url(#paint7_linear_1_4326)"/>
<path opacity="0.6" d="M56.9652 48.6443L11.4634 48.694C11.0737 48.694 10.7503 48.3789 10.7503 47.981V47.9146C10.7503 47.525 11.0654 47.2016 11.4634 47.2016L56.9652 47.1519C57.3549 47.1519 57.6782 47.4669 57.6782 47.8649V47.9312C57.6782 48.3292 57.3549 48.6443 56.9652 48.6443Z" fill="url(#paint8_linear_1_4326)"/>
<path opacity="0.6" d="M57.5539 40.2453L30.276 40.2785C29.8946 40.2785 29.5878 39.9717 29.5878 39.5903V39.4743C29.5878 39.0929 29.8946 38.7861 30.276 38.7861L57.5539 38.7529C57.9353 38.7529 58.242 39.0597 58.242 39.4411V39.5572C58.242 39.9386 57.9353 40.2453 57.5539 40.2453Z" fill="url(#paint9_linear_1_4326)"/>
</g>
<defs>
<linearGradient id="paint0_linear_1_4326" x1="-8.65355" y1="34.748" x2="76.9992" y2="62.5782" gradientUnits="userSpaceOnUse">
<stop stop-color="#6CBCFC"/>
<stop offset="0.1713" stop-color="#5EABFC"/>
<stop offset="0.4084" stop-color="#509AFC"/>
<stop offset="0.6698" stop-color="#4890FC"/>
<stop offset="1" stop-color="#458DFC"/>
</linearGradient>
<linearGradient id="paint1_linear_1_4326" x1="-4.58987" y1="-21.3751" x2="56.3866" y2="7.98961" gradientUnits="userSpaceOnUse">
<stop stop-color="#CFE9FF"/>
<stop offset="1" stop-color="#A1D6FB"/>
</linearGradient>
<linearGradient id="paint2_linear_1_4326" x1="14.6543" y1="2.57952" x2="53.5901" y2="2.57952" gradientUnits="userSpaceOnUse">
<stop stop-color="#B0F4FF"/>
<stop offset="1" stop-color="#69DCFC"/>
</linearGradient>
<linearGradient id="paint3_linear_1_4326" x1="14.7701" y1="29.2076" x2="24.5507" y2="41.8335" gradientUnits="userSpaceOnUse">
<stop stop-color="#6CBCFC"/>
<stop offset="1" stop-color="#458DFC"/>
</linearGradient>
<linearGradient id="paint4_linear_1_4326" x1="13.7093" y1="30.0293" x2="23.4899" y2="42.6553" gradientUnits="userSpaceOnUse">
<stop stop-color="#B0F4FF"/>
<stop offset="0.0994384" stop-color="#A1EFFE"/>
<stop offset="0.2994" stop-color="#88E7FD"/>
<stop offset="0.5095" stop-color="#77E1FD"/>
<stop offset="0.7344" stop-color="#6CDDFC"/>
<stop offset="1" stop-color="#69DCFC"/>
</linearGradient>
<linearGradient id="paint5_linear_1_4326" x1="29.5807" y1="26.5508" x2="51.24" y2="26.5638" gradientUnits="userSpaceOnUse">
<stop stop-color="#6CBCFC"/>
<stop offset="1" stop-color="#458DFC"/>
</linearGradient>
<linearGradient id="paint6_linear_1_4326" x1="29.5847" y1="30.4037" x2="43.7814" y2="30.4037" gradientUnits="userSpaceOnUse">
<stop stop-color="#6CBCFC"/>
<stop offset="1" stop-color="#458DFC"/>
</linearGradient>
<linearGradient id="paint7_linear_1_4326" x1="29.5894" y1="35.0098" x2="58.2374" y2="35.0098" gradientUnits="userSpaceOnUse">
<stop stop-color="#6CBCFC"/>
<stop offset="1" stop-color="#458DFC"/>
</linearGradient>
<linearGradient id="paint8_linear_1_4326" x1="10.7499" y1="47.9273" x2="57.6759" y2="47.9273" gradientUnits="userSpaceOnUse">
<stop stop-color="#6CBCFC"/>
<stop offset="1" stop-color="#458DFC"/>
</linearGradient>
<linearGradient id="paint9_linear_1_4326" x1="29.594" y1="39.5192" x2="58.242" y2="39.5192" gradientUnits="userSpaceOnUse">
<stop stop-color="#6CBCFC"/>
<stop offset="1" stop-color="#458DFC"/>
</linearGradient>
<clipPath id="clip0_1_4326">
<rect width="67.0754" height="95" fill="white" transform="translate(0.635132)"/>
</clipPath>
</defs>
</svg>
