<svg width="15" height="9" viewBox="0 0 15 9" fill="none" xmlns="http://www.w3.org/2000/svg">
<path d="M0.803536 5.30381L11.4107 5.30382L9.08032 7.63417C8.75889 7.9556 8.75889 8.43774 9.08032 8.75917C9.40175 9.0806 9.88389 9.0806 10.2053 8.75917L13.9018 5.06274C14.2232 4.74132 14.2232 4.25917 13.9018 3.93774L10.2053 0.241315C9.88389 -0.0801138 9.40175 -0.0801138 9.08032 0.241315C8.75889 0.562744 8.75889 1.04489 9.08032 1.36631L11.4107 3.69667L0.803536 3.69667C0.40175 3.69667 -3.58041e-05 4.0181 -3.58462e-05 4.50024C-3.58884e-05 4.98239 0.40175 5.30381 0.803536 5.30381Z" fill="#4089ED"/>
</svg>
